<?xml version="1.0" encoding="UTF-8" standalone="no"?>
<svg
   xmlns:dc="http://purl.org/dc/elements/1.1/"
   xmlns:cc="http://creativecommons.org/ns#"
   xmlns:rdf="http://www.w3.org/1999/02/22-rdf-syntax-ns#"
   xmlns:svg="http://www.w3.org/2000/svg"
   xmlns="http://www.w3.org/2000/svg"
   xmlns:sodipodi="http://sodipodi.sourceforge.net/DTD/sodipodi-0.dtd"
   xmlns:inkscape="http://www.inkscape.org/namespaces/inkscape"
   width="298pt"
   height="191pt"
   viewBox="0 0 298 191"
   version="1.2"
   id="svg856"
   sodipodi:docname="Wellesley_logo_280.svg"
   inkscape:version="0.92.2 5c3e80d, 2017-08-06">
  <metadata
     id="metadata860">
    <rdf:RDF>
      <cc:Work
         rdf:about="">
        <dc:format>image/svg+xml</dc:format>
        <dc:type
           rdf:resource="http://purl.org/dc/dcmitype/StillImage" />
        <dc:title></dc:title>
      </cc:Work>
    </rdf:RDF>
  </metadata>
  <sodipodi:namedview
     pagecolor="#ffffff"
     bordercolor="#666666"
     borderopacity="1"
     objecttolerance="10"
     gridtolerance="10"
     guidetolerance="10"
     inkscape:pageopacity="0"
     inkscape:pageshadow="2"
     inkscape:window-width="1292"
     inkscape:window-height="765"
     id="namedview858"
     showgrid="false"
     inkscape:zoom="1.5604477"
     inkscape:cx="279.55279"
     inkscape:cy="127.33333"
     inkscape:window-x="0"
     inkscape:window-y="0"
     inkscape:window-maximized="0"
     inkscape:current-layer="svg856" />
  <defs
     id="defs847">
    <clipPath
       id="clip1">
      <path
         d="M 0 0 L 297.257812 0 L 297.257812 34 L 0 34 Z M 0 0 "
         id="path844" />
    </clipPath>
  </defs>
  <g
     id="surface8821">
    <g
       clip-path="url(#clip1)"
       clip-rule="nonzero"
       id="g851">
      <path
         style=" stroke:none;fill-rule:nonzero;fill:rgb(11.637878%,24.804688%,52.482605%);fill-opacity:1;"
         d="M 283.792969 25.296875 C 283.792969 29.722656 284.101562 30.101562 286.394531 30.386719 L 288.4375 30.625 C 288.796875 30.910156 288.796875 32.003906 288.4375 32.289062 C 285.121094 32.195312 282.621094 32.144531 280.171875 32.144531 C 277.722656 32.144531 275.171875 32.195312 272.160156 32.289062 C 271.753906 32.003906 271.753906 30.910156 272.160156 30.625 L 273.894531 30.386719 C 276.191406 30.054688 276.496094 29.722656 276.496094 25.296875 L 276.496094 22.921875 C 276.496094 20.542969 276.445312 19.78125 275.121094 17.261719 L 269.046875 5.5625 C 268.027344 3.613281 267.566406 2.851562 265.78125 2.566406 L 264.046875 2.28125 C 263.585938 1.902344 263.640625 0.761719 264.25 0.617188 C 266.546875 0.714844 268.433594 0.761719 271.445312 0.761719 C 274.554688 0.761719 277.160156 0.714844 278.894531 0.617188 C 279.355469 0.808594 279.457031 1.902344 278.996094 2.28125 L 277.261719 2.664062 C 276.34375 2.851562 276.039062 3.042969 276.039062 3.089844 C 276.039062 3.472656 276.292969 4.183594 277.363281 6.421875 L 279.765625 11.507812 L 282.109375 16.167969 C 283.589844 13.839844 285.019531 11.078125 286.394531 8.652344 C 288.335938 5.277344 289.050781 3.710938 289.050781 3.140625 C 289.050781 2.851562 288.539062 2.664062 287.316406 2.472656 L 286.140625 2.28125 C 285.734375 2.046875 285.683594 0.855469 286.195312 0.617188 C 288.234375 0.714844 290.070312 0.761719 291.910156 0.761719 C 293.847656 0.761719 295.429688 0.714844 296.910156 0.617188 C 297.523438 0.808594 297.523438 1.949219 297.113281 2.28125 L 295.785156 2.519531 C 294.867188 2.664062 293.898438 2.996094 293.339844 3.660156 C 292.574219 4.5625 291.296875 6.277344 288.847656 10.414062 L 285.632812 15.835938 C 284.304688 18.070312 283.792969 19.257812 283.792969 21.96875 Z M 247.207031 13.125 C 247.207031 14.453125 247.257812 14.550781 248.632812 14.550781 L 252.152344 14.550781 C 254.808594 14.550781 255.421875 14.21875 255.933594 11.9375 L 256.1875 10.746094 C 256.542969 10.367188 257.820312 10.367188 258.074219 10.796875 C 257.976562 12.316406 257.921875 14.027344 257.921875 15.835938 C 257.921875 17.644531 257.976562 19.355469 258.074219 20.875 C 257.820312 21.304688 256.542969 21.351562 256.1875 20.921875 L 255.933594 19.734375 C 255.421875 17.453125 254.808594 17.070312 252.152344 17.070312 L 248.632812 17.070312 C 247.257812 17.070312 247.207031 17.121094 247.207031 18.546875 L 247.207031 24.203125 C 247.207031 26.394531 247.410156 27.914062 248.019531 28.722656 C 248.6875 29.578125 249.65625 29.960938 253.378906 29.960938 C 257.820312 29.960938 259.554688 29.816406 262.359375 24.441406 C 262.769531 23.917969 264.046875 24.109375 264.25 24.679688 C 264.046875 27.152344 262.820312 31.003906 262.109375 32.289062 C 259.402344 32.195312 254.503906 32.144531 250.316406 32.144531 L 243.683594 32.144531 C 241.234375 32.144531 238.734375 32.195312 234.90625 32.289062 C 234.5 32.003906 234.5 30.863281 234.90625 30.625 L 237.304688 30.289062 C 239.601562 29.960938 239.910156 29.671875 239.910156 25.296875 L 239.910156 7.558594 C 239.910156 3.234375 239.601562 2.949219 237.304688 2.519531 L 236.027344 2.28125 C 235.570312 1.996094 235.621094 0.902344 236.132812 0.617188 C 238.53125 0.714844 241.03125 0.761719 243.480469 0.761719 L 254.296875 0.761719 C 257.566406 0.761719 260.472656 0.714844 261.136719 0.617188 C 261.1875 1.378906 261.542969 4.804688 261.800781 7.988281 C 261.597656 8.511719 260.421875 8.605469 259.910156 8.179688 C 259.351562 6.515625 258.636719 5.089844 257.976562 4.421875 C 257.003906 3.519531 255.472656 2.949219 252.972656 2.949219 L 248.890625 2.949219 C 247.207031 2.949219 247.207031 3.042969 247.207031 4.804688 Z M 216.535156 24.253906 C 216.535156 26.484375 216.738281 28.011719 217.402344 28.769531 C 218.070312 29.578125 218.984375 29.960938 222.710938 29.960938 C 227.355469 29.960938 228.785156 29.816406 231.792969 24.300781 C 232.203125 23.824219 233.375 24.015625 233.734375 24.585938 C 233.476562 27.058594 232.253906 31.003906 231.539062 32.289062 C 228.835938 32.195312 223.933594 32.144531 219.75 32.144531 L 212.910156 32.144531 C 210.566406 32.144531 208.015625 32.195312 204.851562 32.289062 C 204.390625 32.003906 204.289062 30.910156 204.695312 30.625 L 206.636719 30.386719 C 208.933594 30.101562 209.238281 29.722656 209.238281 25.296875 L 209.238281 7.609375 C 209.238281 3.1875 208.933594 2.757812 206.636719 2.472656 L 205.15625 2.28125 C 204.644531 1.996094 204.644531 0.902344 205.257812 0.617188 C 207.910156 0.714844 210.464844 0.761719 212.910156 0.761719 C 215.363281 0.761719 217.914062 0.714844 220.464844 0.617188 C 220.875 0.902344 220.875 1.996094 220.464844 2.28125 L 219.136719 2.472656 C 216.84375 2.804688 216.535156 3.1875 216.535156 7.609375 Z M 188.265625 32.90625 C 183.570312 32.90625 180.660156 31.671875 179.589844 31.097656 C 178.621094 30.054688 177.957031 26.632812 177.957031 23.398438 C 178.316406 22.777344 179.488281 22.730469 179.894531 23.253906 C 180.914062 26.34375 184.335938 30.71875 188.675781 30.71875 C 192.449219 30.71875 194.183594 28.296875 194.183594 25.917969 C 194.183594 22.066406 190.308594 19.78125 187.246094 18.355469 C 183.570312 16.644531 179.539062 13.789062 179.539062 9.082031 C 179.488281 3.710938 183.976562 0 191.378906 0 C 193.058594 0 195.152344 0.1875 197.195312 0.761719 C 197.859375 0.949219 198.316406 1.046875 198.929688 1.140625 C 199.339844 2.1875 199.847656 4.757812 199.847656 7.941406 C 199.59375 8.511719 198.316406 8.558594 197.859375 8.085938 C 196.988281 5.65625 194.796875 2.1875 191.121094 2.1875 C 187.753906 2.1875 185.917969 4.230469 185.917969 6.609375 C 185.917969 8.796875 188.011719 10.796875 190.5625 12.03125 L 193.929688 13.695312 C 197.09375 15.265625 201.125 18.023438 201.125 23.253906 C 201.125 29.101562 195.96875 32.90625 188.265625 32.90625 Z M 157.1875 13.125 C 157.1875 14.453125 157.238281 14.550781 158.617188 14.550781 L 162.136719 14.550781 C 164.789062 14.550781 165.402344 14.21875 165.914062 11.9375 L 166.167969 10.746094 C 166.527344 10.367188 167.800781 10.367188 168.058594 10.796875 C 167.957031 12.316406 167.902344 14.027344 167.902344 15.835938 C 167.902344 17.644531 167.957031 19.355469 168.058594 20.875 C 167.800781 21.304688 166.527344 21.351562 166.167969 20.921875 L 165.914062 19.734375 C 165.402344 17.453125 164.789062 17.070312 162.136719 17.070312 L 158.617188 17.070312 C 157.238281 17.070312 157.1875 17.121094 157.1875 18.546875 L 157.1875 24.203125 C 157.1875 26.394531 157.390625 27.914062 158.003906 28.722656 C 158.667969 29.578125 159.636719 29.960938 163.363281 29.960938 C 167.800781 29.960938 169.535156 29.816406 172.34375 24.441406 C 172.75 23.917969 174.027344 24.109375 174.230469 24.679688 C 174.027344 27.152344 172.804688 31.003906 172.089844 32.289062 C 169.382812 32.195312 164.484375 32.144531 160.300781 32.144531 L 153.664062 32.144531 C 151.214844 32.144531 148.714844 32.195312 144.890625 32.289062 C 144.480469 32.003906 144.480469 30.863281 144.890625 30.625 L 147.289062 30.289062 C 149.585938 29.960938 149.890625 29.671875 149.890625 25.296875 L 149.890625 7.558594 C 149.890625 3.234375 149.585938 2.949219 147.289062 2.519531 L 146.011719 2.28125 C 145.554688 1.996094 145.605469 0.902344 146.113281 0.617188 C 148.511719 0.714844 151.011719 0.761719 153.460938 0.761719 L 164.28125 0.761719 C 167.546875 0.761719 170.453125 0.714844 171.117188 0.617188 C 171.171875 1.378906 171.527344 4.804688 171.78125 7.988281 C 171.578125 8.511719 170.402344 8.605469 169.894531 8.179688 C 169.332031 6.515625 168.617188 5.089844 167.957031 4.421875 C 166.984375 3.519531 165.453125 2.949219 162.953125 2.949219 L 158.871094 2.949219 C 157.1875 2.949219 157.1875 3.042969 157.1875 4.804688 Z M 126.515625 24.253906 C 126.515625 26.484375 126.722656 28.011719 127.386719 28.769531 C 128.046875 29.578125 128.96875 29.960938 132.691406 29.960938 C 137.335938 29.960938 138.765625 29.816406 141.777344 24.300781 C 142.183594 23.824219 143.359375 24.015625 143.714844 24.585938 C 143.460938 27.058594 142.234375 31.003906 141.519531 32.289062 C 138.816406 32.195312 133.917969 32.144531 129.734375 32.144531 L 122.894531 32.144531 C 120.546875 32.144531 117.996094 32.195312 114.832031 32.289062 C 114.371094 32.003906 114.269531 30.910156 114.679688 30.625 L 116.617188 30.386719 C 118.914062 30.101562 119.21875 29.722656 119.21875 25.296875 L 119.21875 7.609375 C 119.21875 3.1875 118.914062 2.757812 116.617188 2.472656 L 115.136719 2.28125 C 114.628906 1.996094 114.628906 0.902344 115.238281 0.617188 C 117.894531 0.714844 120.445312 0.761719 122.894531 0.761719 C 125.34375 0.761719 127.894531 0.714844 130.445312 0.617188 C 130.855469 0.902344 130.855469 1.996094 130.445312 2.28125 L 129.117188 2.472656 C 126.824219 2.804688 126.515625 3.1875 126.515625 7.609375 Z M 96.15625 24.253906 C 96.15625 26.484375 96.359375 28.011719 97.023438 28.769531 C 97.683594 29.578125 98.605469 29.960938 102.328125 29.960938 C 106.972656 29.960938 108.402344 29.816406 111.414062 24.300781 C 111.820312 23.824219 112.992188 24.015625 113.351562 24.585938 C 113.097656 27.058594 111.871094 31.003906 111.15625 32.289062 C 108.453125 32.195312 103.554688 32.144531 99.367188 32.144531 L 92.53125 32.144531 C 90.183594 32.144531 87.632812 32.195312 84.46875 32.289062 C 84.007812 32.003906 83.90625 30.910156 84.316406 30.625 L 86.253906 30.386719 C 88.550781 30.101562 88.855469 29.722656 88.855469 25.296875 L 88.855469 7.609375 C 88.855469 3.1875 88.550781 2.757812 86.253906 2.472656 L 84.777344 2.28125 C 84.265625 1.996094 84.265625 0.902344 84.875 0.617188 C 87.53125 0.714844 90.082031 0.761719 92.53125 0.761719 C 94.980469 0.761719 97.53125 0.714844 100.082031 0.617188 C 100.492188 0.902344 100.492188 1.996094 100.082031 2.28125 L 98.757812 2.472656 C 96.460938 2.804688 96.15625 3.1875 96.15625 7.609375 Z M 54.972656 2.519531 C 57.320312 2.996094 57.574219 3.234375 57.574219 7.558594 L 57.574219 25.296875 C 57.574219 29.671875 57.269531 29.960938 54.972656 30.289062 L 52.574219 30.625 C 52.167969 30.863281 52.167969 32.003906 52.574219 32.289062 C 56.402344 32.195312 58.902344 32.144531 61.351562 32.144531 L 67.984375 32.144531 C 72.171875 32.144531 77.070312 32.195312 79.773438 32.289062 C 80.488281 31.003906 81.710938 27.152344 81.917969 24.679688 C 81.710938 24.109375 80.4375 23.917969 80.027344 24.441406 C 77.222656 29.816406 75.488281 29.960938 71.046875 29.960938 C 67.324219 29.960938 66.351562 29.578125 65.6875 28.722656 C 65.078125 27.914062 64.871094 26.394531 64.871094 24.203125 L 64.871094 18.546875 C 64.871094 17.121094 64.925781 17.070312 66.300781 17.070312 L 69.820312 17.070312 C 72.476562 17.070312 73.089844 17.453125 73.597656 19.734375 L 73.851562 20.921875 C 74.210938 21.351562 75.488281 21.304688 75.742188 20.875 C 75.640625 19.355469 75.589844 17.644531 75.589844 15.835938 C 75.589844 14.027344 75.640625 12.316406 75.742188 10.796875 C 75.488281 10.367188 74.210938 10.367188 73.851562 10.746094 L 73.597656 11.9375 C 73.089844 14.21875 72.476562 14.550781 69.820312 14.550781 L 66.300781 14.550781 C 64.925781 14.550781 64.871094 14.453125 64.871094 13.125 L 64.871094 4.804688 C 64.871094 3.042969 64.871094 2.949219 66.554688 2.949219 L 70.640625 2.949219 C 73.140625 2.949219 74.667969 3.519531 75.640625 4.421875 C 76.300781 5.089844 77.019531 6.515625 77.578125 8.179688 C 78.089844 8.605469 79.265625 8.511719 79.46875 7.988281 C 79.210938 4.804688 78.855469 1.378906 78.804688 0.617188 C 78.140625 0.714844 75.230469 0.761719 71.964844 0.761719 L 61.148438 0.761719 C 57.675781 0.761719 56.199219 0.617188 53.492188 0.617188 C 51.605469 0.617188 51.09375 0.761719 48.492188 0.761719 C 46.960938 0.761719 44.917969 0.714844 43.285156 0.617188 C 42.828125 0.855469 42.722656 1.855469 43.132812 2.28125 L 44.253906 2.566406 C 44.917969 2.757812 45.226562 2.902344 45.226562 3.234375 C 45.226562 3.757812 44.207031 6.46875 43.847656 7.273438 C 41.398438 13.078125 39 18.972656 36.550781 24.488281 C 36.242188 23.824219 35.632812 22.445312 34.304688 19.828125 L 31.90625 15.027344 C 31.546875 14.265625 31.496094 13.980469 31.496094 13.839844 C 31.496094 13.601562 32.160156 12.222656 32.621094 11.367188 C 33.285156 10.128906 34.558594 7.941406 35.785156 5.992188 C 37.570312 3.140625 37.929688 2.949219 39.664062 2.617188 L 41.09375 2.328125 C 41.550781 1.996094 41.449219 0.855469 41.042969 0.617188 C 39.714844 0.714844 37.828125 0.761719 35.835938 0.761719 C 34.152344 0.761719 32.316406 0.714844 30.835938 0.617188 C 30.375 0.855469 30.324219 1.949219 30.679688 2.28125 L 32.214844 2.617188 C 33.027344 2.804688 33.234375 2.949219 33.234375 3.28125 C 33.234375 3.566406 32.722656 4.992188 31.855469 6.800781 L 31.394531 7.75 L 29.863281 10.746094 C 29.40625 9.890625 28.894531 8.84375 28.4375 7.847656 L 26.90625 4.5625 C 26.652344 4.042969 26.445312 3.519531 26.445312 3.140625 C 26.445312 2.804688 27.210938 2.617188 27.824219 2.472656 L 28.691406 2.28125 C 29.046875 2.046875 29.097656 0.761719 28.488281 0.617188 C 27.160156 0.714844 25.222656 0.761719 22.617188 0.761719 C 20.375 0.761719 18.382812 0.714844 16.1875 0.617188 C 15.625 0.808594 15.527344 1.902344 16.035156 2.28125 L 16.546875 2.328125 C 18.484375 2.519531 18.84375 2.851562 20.015625 5.230469 L 24.914062 15.265625 C 25.117188 15.742188 25.222656 16.261719 25.222656 16.550781 C 25.222656 16.835938 24.914062 17.878906 24.558594 18.640625 L 23.894531 20.019531 C 22.875 22.160156 22.058594 23.585938 21.445312 24.632812 C 20.832031 23.492188 20.324219 22.492188 18.894531 19.542969 L 13.839844 9.035156 C 12.261719 5.707031 11.1875 3.472656 11.1875 3.140625 C 11.1875 2.804688 11.546875 2.566406 12.464844 2.425781 L 13.382812 2.28125 C 13.894531 1.996094 13.691406 0.808594 13.28125 0.617188 C 11.339844 0.714844 9.351562 0.761719 7.105469 0.761719 C 4.503906 0.761719 2.359375 0.714844 0.472656 0.617188 C -0.0898438 0.855469 -0.140625 1.808594 0.269531 2.28125 L 1.542969 2.519531 C 3.226562 2.851562 3.535156 3.089844 4.910156 5.894531 L 13.28125 22.921875 C 15.015625 26.484375 17.058594 30.765625 17.871094 32.765625 C 18.332031 33 18.640625 33.144531 19.199219 33.144531 C 19.964844 33.144531 20.628906 33 20.882812 32.765625 C 21.699219 31.195312 22.261719 29.816406 23.027344 28.296875 L 25.425781 23.445312 C 26.089844 22.113281 26.703125 20.972656 27.160156 20.160156 C 27.621094 20.875 28.285156 22.304688 29 23.824219 L 31.140625 28.34375 C 31.753906 29.671875 32.519531 31.386719 33.078125 32.527344 C 33.4375 32.765625 33.894531 32.90625 34.457031 32.90625 C 35.121094 32.90625 35.835938 32.765625 36.140625 32.527344 C 38.644531 26.34375 44.410156 14.503906 46.910156 8.9375 C 48.285156 5.945312 49.15625 4.421875 49.714844 3.660156 C 50.074219 3.234375 50.632812 2.902344 51.808594 2.617188 C 53.136719 2.28125 53.800781 2.28125 54.972656 2.519531 "
         id="path849" />
    </g>
    <path
       style=" stroke:none;fill-rule:nonzero;fill:rgb(11.637878%,24.804688%,52.482605%);fill-opacity:1;"
       d="M 182.9375 161.207031 L 161.804688 122.253906 L 189.832031 70.6875 C 197.992188 55.980469 199.988281 55.136719 213.773438 55.136719 L 213.773438 47.695312 L 92.238281 47.695312 L 92.238281 55.136719 C 106.027344 55.136719 108.203125 55.980469 116.183594 70.6875 L 144.210938 122.253906 L 123.078125 161.207031 L 73.554688 69.671875 C 67.75 58.855469 69.203125 55.136719 77.273438 55.136719 L 82.445312 55.136719 L 82.445312 47.695312 L 26.210938 47.695312 L 26.210938 55.078125 L 29.113281 55.246094 C 47.253906 56.261719 48.523438 57.164062 56.867188 72.714844 L 120.175781 189.179688 L 125.433594 189.179688 L 153.007812 138.457031 L 180.582031 189.179688 L 185.839844 189.179688 L 249.144531 72.714844 C 257.492188 57.164062 258.761719 56.148438 276.902344 55.136719 L 278.097656 55.0625 L 278.097656 47.695312 L 223.570312 47.695312 L 223.570312 55.136719 L 228.738281 55.136719 C 236.8125 55.136719 238.261719 58.855469 232.457031 69.671875 Z M 164.070312 55.8125 C 173.730469 55.8125 177.066406 61.671875 171.691406 71.53125 L 153.007812 106.027344 L 134.324219 71.53125 C 128.949219 61.671875 132.253906 55.8125 141.914062 55.8125 L 164.070312 55.8125 "
       id="path853" />
  </g>
</svg>
